<?xml version="1.0" encoding="UTF-8" ?>
<!DOCTYPE svg PUBLIC "-//W3C//DTD SVG 1.1//EN" "http://www.w3.org/Graphics/SVG/1.1/DTD/svg11.dtd">
<svg width="870pt" height="1150pt" viewBox="0 0 870 1150" version="1.1" xmlns="http://www.w3.org/2000/svg">
<path fill="#ffffff" d=" M 0.00 0.00 L 870.00 0.00 L 870.00 1150.00 L 0.00 1150.00 L 0.00 0.00 Z" />
<path fill="#000000" d=" M 306.92 65.99 C 330.46 54.64 357.12 51.31 383.01 52.44 C 408.23 53.72 433.81 59.79 455.09 73.85 C 471.99 84.73 485.62 99.74 498.69 114.81 C 495.14 117.60 492.13 121.05 488.27 123.45 C 474.22 107.23 459.36 90.95 440.20 80.70 C 421.55 70.52 400.12 66.66 379.09 65.78 C 357.50 65.27 335.43 68.01 315.56 76.86 C 306.44 81.05 297.90 86.54 290.28 93.08 L 290.34 93.70 C 295.84 98.08 301.78 101.86 307.35 106.14 C 287.05 117.08 266.50 127.59 246.14 138.43 C 244.33 139.41 242.45 140.28 240.55 141.06 C 244.71 116.36 248.42 91.60 252.64 66.91 C 260.64 72.27 268.33 78.09 276.16 83.69 C 277.06 84.17 278.39 85.56 279.38 84.51 C 287.81 77.31 296.93 70.86 306.92 65.99 Z" />
<path fill="#0e0e0c" d=" M 499.00 133.42 C 584.09 128.12 669.15 122.20 754.22 116.71 C 756.15 127.68 756.27 138.97 754.61 149.97 C 754.36 156.67 755.48 163.37 756.61 169.95 C 764.01 194.12 771.34 218.33 777.47 242.86 C 787.42 282.49 792.21 323.25 793.81 364.03 C 794.53 376.67 794.43 389.35 795.07 402.01 C 795.21 405.98 795.53 410.00 794.57 413.90 C 798.66 429.36 803.64 444.58 807.69 460.05 C 786.75 463.58 765.93 467.87 744.90 470.88 C 723.69 474.17 702.33 476.32 680.95 478.17 C 678.16 478.36 675.36 478.66 672.57 478.56 C 672.06 478.34 669.38 477.68 670.91 477.10 C 678.83 475.94 686.89 475.93 694.82 474.76 C 703.12 474.09 711.39 473.14 719.66 472.18 C 723.53 471.75 727.38 471.23 731.24 470.69 C 739.03 469.69 746.78 468.46 754.54 467.22 C 755.98 466.98 757.42 466.75 758.88 466.53 C 767.39 465.14 775.88 463.59 784.39 462.13 C 784.95 462.03 786.08 461.84 786.64 461.74 C 792.74 460.51 798.86 459.44 804.98 458.32 C 803.65 452.87 801.91 447.54 800.44 442.14 C 800.26 441.48 799.91 440.17 799.73 439.52 C 797.44 430.64 794.51 421.94 792.36 413.03 C 793.80 408.50 793.14 403.71 792.94 399.05 C 792.17 360.89 790.39 322.63 784.13 284.92 C 777.97 246.41 766.44 209.06 755.11 171.83 C 752.35 161.14 752.19 149.95 753.83 139.06 C 726.20 139.96 698.65 142.31 671.04 143.55 C 615.76 147.01 560.44 149.86 505.17 153.43 C 508.24 167.96 511.40 182.47 514.55 196.99 C 515.27 200.01 513.71 202.93 513.69 205.96 C 513.36 225.96 513.12 245.97 513.62 265.97 C 514.70 288.74 516.74 311.48 520.22 334.02 C 524.38 361.70 530.75 388.99 537.33 416.18 C 538.69 422.45 540.93 428.52 541.74 434.91 C 543.02 444.23 544.79 453.50 545.63 462.88 C 545.67 463.57 545.74 464.95 545.78 465.63 C 546.18 472.11 544.69 478.44 542.96 484.63 C 550.71 484.37 558.42 483.54 566.18 483.42 C 567.71 483.34 569.25 483.26 570.80 483.16 C 579.27 482.32 587.79 482.41 596.27 481.60 C 597.63 481.50 598.99 481.41 600.37 481.33 C 607.50 480.80 614.66 480.84 621.77 479.97 C 632.54 479.70 643.26 478.65 654.03 478.28 C 654.27 478.66 654.75 479.41 654.99 479.79 C 654.75 479.93 654.27 480.22 654.02 480.37 C 616.58 482.51 579.15 484.81 541.70 486.88 C 539.62 483.03 542.86 478.95 543.11 474.95 C 545.11 460.55 540.97 446.28 539.29 432.05 C 530.50 397.02 521.97 361.81 517.06 325.98 C 514.42 307.44 512.78 288.78 511.92 270.09 C 510.97 249.06 511.45 228.00 511.75 206.96 C 511.71 203.96 512.32 201.02 512.65 198.06 C 508.42 176.45 503.14 155.04 499.00 133.42 Z" />
<path fill="#f5e9c8" d=" M 729.99 120.41 C 737.53 119.76 745.09 119.36 752.64 118.82 C 753.42 124.75 753.82 130.72 753.86 136.70 C 745.97 137.52 738.05 137.75 730.15 138.23 C 730.19 132.29 730.22 126.35 729.99 120.41 Z" />
<path fill="#f5e9c8" d=" M 678.43 123.81 C 694.35 122.45 710.30 121.94 726.22 120.53 C 726.31 126.48 726.28 132.43 726.34 138.38 C 719.29 138.95 712.24 139.49 705.17 139.57 C 705.30 133.93 705.32 128.29 705.21 122.66 C 703.91 122.77 702.61 122.87 701.32 122.98 C 701.37 128.50 701.39 134.02 701.40 139.54 L 701.40 140.05 C 691.84 140.44 682.30 141.03 672.75 141.54 C 672.64 136.03 672.62 130.53 672.77 125.02 C 674.64 124.60 676.53 124.16 678.43 123.81 Z" />
<path fill="#c1b99c" d=" M 726.22 120.53 C 727.47 120.49 728.72 120.46 729.99 120.41 C 730.22 126.35 730.19 132.29 730.15 138.23 C 728.87 138.26 727.60 138.31 726.34 138.38 C 726.28 132.43 726.31 126.48 726.22 120.53 Z" />
<path fill="#c1b99c" d=" M 657.85 125.14 C 664.68 124.34 671.56 124.03 678.43 123.81 C 676.53 124.16 674.64 124.60 672.77 125.02 C 672.62 130.53 672.64 136.03 672.75 141.54 C 671.54 141.57 670.33 141.60 669.14 141.65 C 668.75 136.01 668.77 130.36 668.87 124.71 C 665.19 124.87 661.52 125.01 657.85 125.14 Z" />
<path fill="#c1b99c" d=" M 701.32 122.98 C 702.61 122.87 703.91 122.77 705.21 122.66 C 705.32 128.29 705.30 133.93 705.17 139.57 C 703.91 139.56 702.65 139.55 701.40 139.54 C 701.39 134.02 701.37 128.50 701.32 122.98 Z" />
<path fill="#f5e8c6" d=" M 637.52 126.49 C 644.29 125.98 651.04 125.16 657.85 125.14 C 661.52 125.01 665.19 124.87 668.87 124.71 C 668.77 130.36 668.75 136.01 669.14 141.65 C 659.87 142.64 650.54 143.00 641.24 143.39 C 640.37 143.34 638.63 143.25 637.76 143.21 C 637.51 137.64 637.37 132.06 637.52 126.49 Z" />
<path fill="#f5e9c8" d=" M 602.35 128.75 C 612.73 127.95 623.13 127.40 633.51 126.67 C 633.49 132.11 633.63 137.55 633.79 142.98 C 631.14 143.40 628.50 143.88 625.85 144.28 C 615.89 144.67 605.97 145.90 595.99 145.79 C 596.94 145.45 597.89 145.12 598.85 144.78 C 598.62 139.84 598.52 134.89 598.51 129.94 C 599.78 129.52 601.06 129.12 602.35 128.75 Z" />
<path fill="#c1b99c" d=" M 633.51 126.67 C 634.84 126.62 636.17 126.56 637.52 126.49 C 637.37 132.06 637.51 137.64 637.76 143.21 C 638.63 143.25 640.37 143.34 641.24 143.39 C 636.10 143.56 630.99 144.45 625.85 144.28 C 628.50 143.88 631.14 143.40 633.79 142.98 C 633.63 137.55 633.49 132.11 633.51 126.67 Z" />
<path fill="#c1b99c" d=" M 588.98 129.62 C 593.43 129.24 597.90 129.11 602.35 128.75 C 601.06 129.12 599.78 129.52 598.51 129.94 C 598.52 134.89 598.62 139.84 598.85 144.78 C 597.89 145.12 596.94 145.45 595.99 145.79 L 595.15 146.09 C 594.72 140.66 594.52 135.21 594.35 129.76 C 592.55 129.69 590.77 129.63 588.98 129.62 Z" />
<path fill="#f5e9c8" d=" M 560.84 131.59 C 570.20 130.62 579.60 130.31 588.98 129.62 C 590.77 129.63 592.55 129.69 594.35 129.76 C 594.52 135.21 594.72 140.66 595.15 146.09 C 585.11 146.62 575.08 147.43 565.02 147.71 C 563.85 142.28 562.36 136.93 560.84 131.59 Z" />
<path fill="#f5e9c8" d=" M 526.33 133.71 C 536.50 133.03 546.68 132.40 556.85 131.70 C 558.31 137.19 559.87 142.65 561.25 148.16 C 550.47 148.51 539.73 149.70 528.93 149.70 C 520.92 150.90 512.79 150.78 504.72 151.26 C 503.63 145.97 502.31 140.73 501.36 135.42 C 508.47 134.97 515.58 134.15 522.73 134.28 C 523.71 139.40 525.24 144.39 526.93 149.32 C 528.22 149.25 529.52 149.19 530.82 149.12 C 529.28 144.00 527.71 138.88 526.33 133.71 Z" />
<path fill="#c1b99c" d=" M 556.85 131.70 C 558.17 131.67 559.50 131.63 560.84 131.59 C 562.36 136.93 563.85 142.28 565.02 147.71 C 563.75 147.84 562.51 147.99 561.25 148.16 C 559.87 142.65 558.31 137.19 556.85 131.70 Z" />
<path fill="#c1b99c" d=" M 522.73 134.28 C 523.91 134.09 525.13 133.91 526.33 133.71 C 527.71 138.88 529.28 144.00 530.82 149.12 C 529.52 149.19 528.22 149.25 526.93 149.32 C 525.24 144.39 523.71 139.40 522.73 134.28 Z" />
<path fill="#ffec88" d=" M 671.04 143.55 C 698.65 142.31 726.20 139.96 753.83 139.06 C 752.19 149.95 752.35 161.14 755.11 171.83 C 766.44 209.06 777.97 246.41 784.13 284.92 C 790.39 322.63 792.17 360.89 792.94 399.05 C 793.14 403.71 793.80 408.50 792.36 413.03 C 794.51 421.94 797.44 430.64 799.73 439.52 C 767.30 445.33 734.68 450.07 702.00 454.30 C 696.03 455.29 689.94 455.13 683.98 456.24 C 671.41 458.18 658.67 458.53 646.05 459.96 C 638.38 460.84 630.64 460.23 623.00 461.34 C 597.24 462.62 571.43 462.81 545.63 462.88 C 544.79 453.50 543.02 444.23 541.74 434.91 C 540.93 428.52 538.69 422.45 537.33 416.18 C 530.75 388.99 524.38 361.70 520.22 334.02 C 516.74 311.48 514.70 288.74 513.62 265.97 C 513.12 245.97 513.36 225.96 513.69 205.96 C 513.71 202.93 515.27 200.01 514.55 196.99 C 511.40 182.47 508.24 167.96 505.17 153.43 C 560.44 149.86 615.76 147.01 671.04 143.55 Z" />
<path fill="#9e9e9e" d=" M 65.38 175.43 C 68.38 174.89 71.79 174.83 74.36 176.73 C 78.68 179.65 81.65 184.13 86.02 187.00 C 96.33 193.92 107.30 200.08 119.23 203.71 C 126.31 205.81 133.69 206.65 141.03 207.02 C 157.10 206.39 172.77 202.41 188.22 198.22 C 215.87 190.86 243.37 181.84 272.05 179.51 C 282.02 179.60 292.06 178.87 301.96 180.31 C 328.82 183.12 353.81 194.13 378.44 204.50 C 384.12 206.61 384.78 213.46 384.35 218.67 C 382.31 217.93 380.09 217.15 379.05 215.08 C 377.51 209.15 371.79 206.12 366.45 204.26 C 341.50 193.75 315.37 184.36 288.00 183.75 C 258.08 182.74 229.18 191.86 200.61 199.54 C 181.73 204.75 162.71 210.30 143.04 211.38 C 137.76 211.59 132.50 210.85 127.28 210.08 C 112.68 207.70 99.36 200.68 86.98 192.88 C 82.73 190.26 79.22 186.68 75.30 183.63 C 73.09 181.75 70.02 182.52 67.38 182.41 C 65.86 184.41 63.60 186.24 63.51 188.95 C 63.09 194.65 63.92 200.33 63.86 206.03 C 63.82 239.01 63.86 271.99 63.84 304.97 C 63.75 309.50 63.67 314.07 64.65 318.52 C 64.75 319.12 64.96 320.32 65.06 320.91 C 65.10 323.49 64.79 326.08 65.11 328.65 C 65.94 330.37 67.76 331.32 69.13 332.58 C 69.13 330.54 69.08 328.51 69.02 326.48 C 69.49 328.94 69.72 331.43 70.06 333.90 C 70.14 337.13 70.05 340.35 70.06 343.58 C 71.38 344.39 72.69 345.22 73.99 346.06 C 73.98 344.10 73.98 342.15 73.95 340.20 C 74.35 343.11 74.55 346.05 75.01 348.96 C 75.12 351.80 74.80 354.64 74.39 357.45 C 76.00 358.97 77.68 360.41 79.55 361.61 C 81.03 367.34 85.49 371.51 90.40 374.46 C 104.29 383.16 119.02 391.18 135.23 394.48 C 145.28 396.72 155.64 396.95 165.88 396.29 C 183.64 394.70 200.86 389.83 218.01 385.19 C 240.63 379.01 263.22 372.09 286.63 369.63 C 306.38 367.87 326.33 370.77 345.07 377.10 C 357.85 381.15 370.06 386.73 382.58 391.49 C 385.25 392.67 388.17 391.96 390.94 391.58 C 392.50 389.58 394.72 387.78 394.99 385.08 C 395.57 381.40 395.32 377.66 395.34 373.95 C 395.28 343.63 395.45 313.31 395.12 282.99 C 394.60 275.02 394.92 267.04 394.75 259.06 C 394.69 255.58 394.72 252.10 394.67 248.62 C 398.03 250.36 399.92 254.25 399.69 257.96 C 399.62 296.97 399.68 335.98 399.66 374.99 C 399.60 380.65 400.03 386.39 398.81 391.97 C 398.13 395.45 395.21 398.11 392.00 399.35 C 388.51 400.44 385.58 397.73 382.54 396.51 C 367.19 390.19 351.94 383.46 335.89 379.05 C 319.76 374.23 302.74 372.62 285.99 374.14 C 263.63 376.88 241.98 383.36 220.31 389.28 C 201.51 394.45 182.56 399.85 162.99 401.02 C 156.69 401.94 150.38 400.77 144.08 400.55 C 124.07 398.81 105.90 389.31 89.11 378.90 C 84.10 376.18 79.53 372.55 76.13 367.95 C 74.04 365.04 74.54 361.37 74.18 358.02 C 73.13 355.80 71.09 354.17 70.23 351.83 C 68.87 348.46 69.96 344.66 68.72 341.27 C 67.65 339.73 66.07 338.53 65.40 336.74 C 64.35 334.18 64.79 331.35 64.27 328.69 C 62.64 326.31 60.12 324.42 59.53 321.45 C 58.14 317.01 59.65 312.45 59.66 307.94 C 59.63 273.62 59.66 239.30 59.65 204.98 C 59.28 198.33 58.87 191.68 58.92 185.01 C 59.06 181.01 61.27 176.56 65.38 175.43 Z" />
<path fill="#54d4ff" d=" M 730.87 175.90 C 735.71 174.48 740.96 175.05 745.74 176.47 C 745.78 180.89 745.70 185.31 745.52 189.73 C 741.09 188.43 735.69 187.29 732.00 190.87 C 733.67 194.51 737.76 193.28 740.93 193.67 C 744.59 193.91 747.51 196.94 748.56 200.32 C 750.22 205.44 749.76 211.30 747.11 216.01 C 744.61 220.74 739.11 223.27 733.93 223.42 C 729.93 223.17 726.28 221.29 722.53 220.03 C 722.38 215.68 722.61 211.34 722.91 207.01 C 727.47 208.36 732.89 211.12 737.35 208.10 C 737.97 206.49 737.54 205.40 736.06 204.83 C 732.39 203.96 728.04 204.80 725.14 201.85 C 717.94 194.22 720.78 179.57 730.87 175.90 Z" />
<path fill="#54d4ff" d=" M 689.19 180.00 C 696.24 177.58 704.27 175.22 711.42 178.59 C 721.46 182.82 723.40 198.25 715.18 205.16 C 711.81 208.30 707.13 209.18 702.74 209.88 C 702.55 214.81 703.08 219.73 703.33 224.65 C 699.33 224.80 695.34 225.12 691.38 225.71 C 689.99 216.51 690.58 207.17 689.98 197.91 C 689.53 191.95 689.46 185.97 689.19 180.00 Z" />
<path fill="#54d4ff" d=" M 663.46 180.68 C 668.34 180.52 673.15 179.57 678.03 179.35 C 681.67 193.74 686.36 207.85 689.95 222.26 C 685.72 223.16 681.49 224.11 677.22 224.74 C 676.57 222.36 675.94 219.97 675.31 217.59 C 673.27 217.73 671.24 217.87 669.21 218.01 C 668.78 220.44 668.44 222.88 668.16 225.33 C 662.13 224.95 655.97 223.56 649.99 225.05 C 647.83 225.52 645.68 226.02 643.54 226.50 C 642.75 224.13 642.06 221.72 641.38 219.32 C 639.37 219.35 637.37 219.38 635.38 219.43 C 634.93 221.86 634.58 224.31 634.33 226.78 C 629.55 226.76 624.82 226.03 620.06 225.89 C 616.42 226.38 612.88 227.45 609.23 227.84 C 608.66 225.42 608.03 223.02 607.37 220.62 C 605.34 220.80 603.34 220.99 601.32 221.15 C 601.01 223.60 600.66 226.04 600.30 228.49 C 595.84 228.31 591.41 227.72 586.97 227.35 C 589.78 213.03 592.34 198.63 595.44 184.37 C 600.06 182.96 605.25 183.23 610.09 182.51 C 613.15 194.07 616.62 205.52 619.78 217.06 C 620.14 218.56 620.81 219.97 621.46 221.36 C 624.62 208.49 626.43 195.32 629.47 182.42 C 634.29 181.86 639.11 181.25 643.96 181.09 C 647.87 194.09 651.08 207.31 655.41 220.17 C 658.47 207.09 660.37 193.76 663.46 180.68 Z" />
<path fill="#316601" d=" M 67.38 182.41 C 70.02 182.52 73.09 181.75 75.30 183.63 C 79.22 186.68 82.73 190.26 86.98 192.88 C 99.36 200.68 112.68 207.70 127.28 210.08 C 132.50 210.85 137.76 211.59 143.04 211.38 C 162.71 210.30 181.73 204.75 200.61 199.54 C 229.18 191.86 258.08 182.74 288.00 183.75 C 315.37 184.36 341.50 193.75 366.45 204.26 C 371.79 206.12 377.51 209.15 379.05 215.08 L 379.20 216.41 C 372.76 214.21 366.62 211.25 360.29 208.78 C 343.69 202.12 326.46 196.69 308.66 194.48 C 298.50 193.12 288.23 193.75 278.02 193.70 C 257.99 194.85 238.56 200.32 219.21 205.25 C 198.95 210.60 178.94 217.29 158.11 220.16 C 139.71 223.13 120.76 218.34 104.73 209.20 C 97.74 205.09 90.36 201.25 84.80 195.20 C 81.95 192.21 78.50 188.99 74.06 189.19 C 69.16 188.75 64.95 193.20 64.78 197.93 C 64.18 207.96 65.52 217.98 65.18 228.02 C 65.21 253.01 65.12 278.01 65.18 303.00 C 65.32 308.18 65.21 313.36 64.65 318.52 C 63.67 314.07 63.75 309.50 63.84 304.97 C 63.86 271.99 63.82 239.01 63.86 206.03 C 63.92 200.33 63.09 194.65 63.51 188.95 C 63.60 186.24 65.86 184.41 67.38 182.41 Z" />
<path fill="#54d4ff" d=" M 571.67 184.26 C 575.59 183.94 579.53 183.56 583.47 184.00 C 584.80 199.15 585.03 214.38 586.80 229.48 C 582.46 230.52 578.01 230.81 573.57 230.85 C 572.97 226.04 572.68 221.21 572.57 216.37 C 570.52 216.40 568.47 216.45 566.43 216.49 C 566.50 221.20 566.49 225.90 566.58 230.60 C 562.82 231.10 559.02 231.26 555.23 231.32 C 554.09 219.93 554.91 208.42 554.17 197.00 C 553.89 193.62 553.55 190.22 553.85 186.83 C 554.11 186.59 554.64 186.11 554.90 185.88 C 558.64 185.68 562.44 185.59 566.16 186.12 C 566.78 193.68 566.40 201.29 566.48 208.86 C 568.47 209.04 570.46 209.24 572.48 209.32 C 572.88 200.94 571.58 192.62 571.67 184.26 Z" />
<path fill="#54d4ff" d=" M 529.89 192.88 C 533.55 186.89 541.11 183.50 548.01 184.89 C 549.14 185.30 550.83 185.31 551.25 186.73 C 551.10 190.92 550.53 195.09 550.43 199.29 C 545.92 198.95 540.64 200.29 538.84 204.92 C 537.70 208.76 537.32 214.67 541.96 216.33 C 545.67 217.24 549.06 215.00 552.20 213.36 C 552.33 218.41 551.80 223.43 551.58 228.46 C 547.19 230.73 541.98 232.52 537.11 230.71 C 530.23 228.29 526.31 221.05 525.52 214.14 C 524.96 206.86 525.95 199.16 529.89 192.88 Z" />
<path fill="#1e3e00" d=" M 64.78 197.93 C 64.95 193.20 69.16 188.75 74.06 189.19 C 78.50 188.99 81.95 192.21 84.80 195.20 C 90.36 201.25 97.74 205.09 104.73 209.20 C 120.76 218.34 139.71 223.13 158.11 220.16 C 178.94 217.29 198.95 210.60 219.21 205.25 C 238.56 200.32 257.99 194.85 278.02 193.70 C 288.23 193.75 298.50 193.12 308.66 194.48 C 326.46 196.69 343.69 202.12 360.29 208.78 C 366.62 211.25 372.76 214.21 379.20 216.41 C 379.33 218.09 379.37 219.77 379.43 221.46 C 358.87 212.82 338.07 204.06 315.98 200.19 C 303.80 197.89 291.35 197.47 279.00 198.06 C 256.90 199.60 235.50 205.67 214.19 211.33 C 192.13 217.38 170.04 224.49 147.02 225.51 C 135.61 225.06 124.07 223.21 113.64 218.34 C 106.33 214.82 99.01 211.23 92.21 206.79 C 87.82 203.95 84.32 199.97 79.97 197.09 C 76.39 194.68 71.30 196.86 69.45 200.45 C 68.17 204.16 68.93 208.17 69.11 212.01 C 70.69 209.73 71.88 206.93 74.37 205.48 C 78.16 203.95 82.87 204.34 86.06 207.03 C 89.92 210.08 92.85 214.19 97.01 216.88 C 110.11 225.37 124.21 233.43 139.97 235.32 C 144.49 235.89 149.03 236.73 153.61 236.47 C 177.69 234.70 200.70 226.88 223.89 220.73 C 246.20 214.94 268.78 208.54 292.03 208.90 C 306.21 208.60 320.47 210.08 334.18 213.74 C 351.74 218.31 368.45 225.48 385.20 232.32 C 385.11 233.95 385.01 235.58 384.93 237.22 C 357.11 224.96 327.83 213.56 297.00 213.22 C 276.66 212.49 256.59 216.96 237.01 221.98 C 212.66 227.85 188.92 236.48 164.01 239.82 C 148.58 242.05 132.57 240.03 118.33 233.65 C 109.54 229.43 100.63 225.17 92.99 219.03 C 90.00 216.69 87.47 213.70 84.04 211.96 C 80.81 210.24 77.05 212.37 74.88 214.83 C 72.95 218.23 73.89 222.31 74.17 225.99 C 76.03 222.60 78.48 218.65 82.91 218.77 C 90.75 217.92 94.77 225.76 100.25 229.78 C 112.41 238.15 125.62 245.57 140.17 248.78 C 148.34 250.38 156.76 251.14 165.06 250.01 C 181.69 248.04 197.86 243.41 213.98 239.01 C 237.70 232.52 261.47 225.30 286.10 223.30 C 298.30 222.95 310.60 222.65 322.70 224.58 C 346.20 228.21 368.51 237.07 390.09 246.78 C 389.95 248.28 389.82 249.78 389.69 251.29 C 364.96 240.34 339.23 230.40 312.09 227.74 C 297.40 226.57 282.57 227.32 268.11 230.21 C 242.53 234.96 217.73 242.93 192.58 249.44 C 181.21 252.06 169.72 254.33 158.04 254.92 C 143.85 254.92 129.61 251.58 117.09 244.83 C 109.38 240.84 101.66 236.63 95.12 230.85 C 92.86 229.01 90.76 226.80 87.97 225.77 C 84.07 225.04 78.96 227.53 78.86 231.94 C 78.14 238.28 79.30 244.63 79.27 250.97 C 79.19 279.32 79.25 307.67 79.24 336.01 C 79.14 342.26 79.71 348.56 78.50 354.74 C 77.31 352.82 76.07 350.95 75.01 348.96 C 74.55 346.05 74.35 343.11 73.95 340.20 C 72.72 338.06 71.31 336.03 70.06 333.90 C 69.72 331.43 69.49 328.94 69.02 326.48 C 67.73 324.60 66.34 322.79 65.06 320.91 C 64.96 320.32 64.75 319.12 64.65 318.52 C 65.21 313.36 65.32 308.18 65.18 303.00 C 65.12 278.01 65.21 253.01 65.18 228.02 C 65.52 217.98 64.18 207.96 64.78 197.93 Z" />
<path fill="#ffec88" d=" M 702.32 189.99 C 704.84 189.16 708.11 190.00 708.57 192.96 C 709.62 196.82 706.21 200.24 702.42 199.98 C 702.48 196.64 702.41 193.31 702.32 189.99 Z" />
<path fill="#316601" d=" M 69.45 200.45 C 71.30 196.86 76.39 194.68 79.97 197.09 C 84.32 199.97 87.82 203.95 92.21 206.79 C 99.01 211.23 106.33 214.82 113.64 218.34 C 124.07 223.21 135.61 225.06 147.02 225.51 C 170.04 224.49 192.13 217.38 214.19 211.33 C 235.50 205.67 256.90 199.60 279.00 198.06 C 291.35 197.47 303.80 197.89 315.98 200.19 C 338.07 204.06 358.87 212.82 379.43 221.46 C 381.05 223.06 382.55 224.79 383.98 226.57 C 384.37 228.49 384.78 230.40 385.20 232.32 C 368.45 225.48 351.74 218.31 334.18 213.74 C 320.47 210.08 306.21 208.60 292.03 208.90 C 268.78 208.54 246.20 214.94 223.89 220.73 C 200.70 226.88 177.69 234.70 153.61 236.47 C 149.03 236.73 144.49 235.89 139.97 235.32 C 124.21 233.43 110.11 225.37 97.01 216.88 C 92.85 214.19 89.92 210.08 86.06 207.03 C 82.87 204.34 78.16 203.95 74.37 205.48 C 71.88 206.93 70.69 209.73 69.11 212.01 C 68.93 208.17 68.17 204.16 69.45 200.45 Z" />
<path fill="#ffec88" d=" M 671.21 197.11 C 672.26 200.60 673.15 204.14 673.89 207.72 C 672.60 207.76 671.33 207.80 670.07 207.84 C 670.32 204.25 670.65 200.66 671.21 197.11 Z" />
<path fill="#feec8c" d=" M 637.21 199.73 C 639.06 202.66 639.19 206.21 639.84 209.53 C 638.58 209.56 637.33 209.59 636.09 209.62 C 636.28 206.31 636.50 202.98 637.21 199.73 Z" />
<path fill="#fdec8b" d=" M 602.26 211.33 C 602.30 207.82 602.50 204.28 603.67 200.95 C 604.72 204.31 605.47 207.76 605.81 211.27 C 604.62 211.28 603.44 211.30 602.26 211.33 Z" />
<path fill="#316601" d=" M 74.88 214.83 C 77.05 212.37 80.81 210.24 84.04 211.96 C 87.47 213.70 90.00 216.69 92.99 219.03 C 100.63 225.17 109.54 229.43 118.33 233.65 C 132.57 240.03 148.58 242.05 164.01 239.82 C 188.92 236.48 212.66 227.85 237.01 221.98 C 256.59 216.96 276.66 212.49 297.00 213.22 C 327.83 213.56 357.11 224.96 384.93 237.22 C 387.06 239.49 388.71 242.17 389.83 245.07 C 389.90 245.50 390.03 246.35 390.09 246.78 C 368.51 237.07 346.20 228.21 322.70 224.58 C 310.60 222.65 298.30 222.95 286.10 223.30 C 261.47 225.30 237.70 232.52 213.98 239.01 C 197.86 243.41 181.69 248.04 165.06 250.01 C 156.76 251.14 148.34 250.38 140.17 248.78 C 125.62 245.57 112.41 238.15 100.25 229.78 C 94.77 225.76 90.75 217.92 82.91 218.77 C 78.48 218.65 76.03 222.60 74.17 225.99 C 73.89 222.31 72.95 218.23 74.88 214.83 Z" />
<path fill="#626262" d=" M 379.05 215.08 C 380.09 217.15 382.31 217.93 384.35 218.67 L 384.35 218.69 C 384.20 221.31 384.04 223.94 383.98 226.57 C 382.55 224.79 381.05 223.06 379.43 221.46 C 379.37 219.77 379.33 218.09 379.20 216.41 L 379.05 215.08 Z" />
<path fill="#9e9e9e" d=" M 384.35 218.69 C 385.94 219.71 387.57 220.87 388.42 222.64 C 390.61 226.12 389.57 230.40 389.82 234.28 C 388.27 233.62 386.73 232.97 385.20 232.32 C 384.78 230.40 384.37 228.49 383.98 226.57 C 384.04 223.94 384.20 221.31 384.35 218.69 Z" />
<path fill="#306500" d=" M 78.86 231.94 C 78.96 227.53 84.07 225.04 87.97 225.77 C 90.76 226.80 92.86 229.01 95.12 230.85 C 101.66 236.63 109.38 240.84 117.09 244.83 C 129.61 251.58 143.85 254.92 158.04 254.92 C 169.72 254.33 181.21 252.06 192.58 249.44 C 217.73 242.93 242.53 234.96 268.11 230.21 C 282.57 227.32 297.40 226.57 312.09 227.74 C 339.23 230.40 364.96 240.34 389.69 251.29 C 391.83 253.55 393.56 256.18 394.75 259.06 C 394.92 267.04 394.60 275.02 395.12 282.99 C 395.45 313.31 395.28 343.63 395.34 373.95 C 395.32 377.66 395.57 381.40 394.99 385.08 C 394.72 387.78 392.50 389.58 390.94 391.58 C 388.17 391.96 385.25 392.67 382.58 391.49 C 370.06 386.73 357.85 381.15 345.07 377.10 C 326.33 370.77 306.38 367.87 286.63 369.63 C 263.22 372.09 240.63 379.01 218.01 385.19 C 200.86 389.83 183.64 394.70 165.88 396.29 C 155.64 396.95 145.28 396.72 135.23 394.48 C 119.02 391.18 104.29 383.16 90.40 374.46 C 85.49 371.51 81.03 367.34 79.55 361.61 C 79.33 359.30 79.11 356.98 78.50 354.74 C 79.71 348.56 79.14 342.26 79.24 336.01 C 79.25 307.67 79.19 279.32 79.27 250.97 C 79.30 244.63 78.14 238.28 78.86 231.94 Z" />
<path fill="#626262" d=" M 385.20 232.32 C 386.73 232.97 388.27 233.62 389.82 234.28 L 389.81 234.47 C 389.77 238.00 389.66 241.54 389.83 245.07 C 388.71 242.17 387.06 239.49 384.93 237.22 C 385.01 235.58 385.11 233.95 385.20 232.32 Z" />
<path fill="#9e9e9e" d=" M 389.81 234.47 C 392.01 235.62 393.46 237.69 394.33 239.97 C 394.38 242.66 394.31 245.36 394.26 248.05 C 392.86 247.62 391.47 247.20 390.09 246.78 C 390.03 246.35 389.90 245.50 389.83 245.07 C 389.66 241.54 389.77 238.00 389.81 234.47 Z" />
<path fill="#ff5454" d=" M 668.46 238.73 C 676.30 247.80 683.45 257.46 691.04 266.74 C 705.12 257.90 718.68 248.24 732.91 239.64 C 731.75 256.41 728.29 272.96 727.11 289.73 C 745.51 295.59 763.96 301.28 782.30 307.34 C 771.68 315.85 760.18 323.24 749.22 331.30 C 747.66 332.74 744.96 333.46 744.27 335.57 C 751.32 342.53 759.11 348.71 766.20 355.64 C 757.04 355.93 747.89 355.19 738.74 355.51 C 740.49 357.37 742.43 359.07 744.57 360.50 C 752.39 366.32 760.16 372.22 767.97 378.08 C 771.06 380.48 774.43 382.58 777.11 385.48 C 760.58 384.00 744.08 382.15 727.50 381.20 C 733.03 399.28 739.43 417.11 744.54 435.30 C 729.12 426.28 714.23 416.36 698.82 407.32 C 695.56 419.63 693.17 432.18 689.40 444.35 C 682.77 434.10 676.73 423.47 670.14 413.20 C 653.15 423.74 636.48 434.79 619.37 445.12 C 618.45 434.35 618.89 423.52 618.09 412.76 C 596.18 412.22 574.26 413.54 552.35 413.59 C 564.77 397.00 577.65 380.75 590.25 364.29 C 592.49 361.19 595.25 358.44 597.02 355.02 C 596.57 353.83 595.23 353.42 594.29 352.76 C 584.44 347.30 574.68 341.70 564.87 336.17 C 562.37 334.78 559.70 333.59 557.68 331.52 C 573.37 326.48 589.06 321.39 604.78 316.44 C 601.35 294.94 597.31 273.54 593.51 252.10 C 613.99 259.18 633.85 267.99 654.35 274.98 C 659.02 262.88 663.55 250.73 668.46 238.73 Z" />
<path fill="#626262" d=" M 394.33 239.97 C 394.57 242.85 394.61 245.73 394.67 248.62 C 394.72 252.10 394.69 255.58 394.75 259.06 C 393.56 256.18 391.83 253.55 389.69 251.29 C 389.82 249.78 389.95 248.28 390.09 246.78 C 391.47 247.20 392.86 247.62 394.26 248.05 C 394.31 245.36 394.38 242.66 394.33 239.97 Z" />
<path fill="#438400" d=" M 285.32 244.44 C 310.56 241.76 335.96 247.30 359.31 256.70 C 365.81 259.09 372.22 261.71 378.49 264.66 C 378.78 300.46 378.95 336.26 378.84 372.06 C 367.90 368.03 357.25 363.14 345.96 360.08 C 318.63 351.09 288.96 350.49 261.02 356.98 C 236.94 362.06 213.54 369.80 189.63 375.55 C 175.67 378.68 161.34 381.44 146.99 379.72 C 128.15 377.88 111.11 368.52 95.72 358.06 C 95.63 329.02 95.75 299.99 95.69 270.96 C 95.70 264.84 95.47 258.70 95.90 252.59 C 102.39 255.36 108.09 259.67 114.70 262.21 C 126.95 267.98 140.40 271.21 153.96 271.35 C 171.65 271.74 189.02 267.57 205.99 263.01 C 232.30 256.32 258.22 247.41 285.32 244.44 Z" />
<path fill="#214200" d=" M 330.48 253.53 C 333.43 251.91 336.89 252.93 340.03 253.18 C 340.51 257.36 339.60 261.49 339.24 265.63 C 343.31 266.92 348.48 267.08 351.22 270.77 C 351.99 273.83 351.90 277.13 351.29 280.21 C 349.95 281.83 347.88 280.11 346.36 279.69 C 340.44 276.83 333.27 275.31 327.00 277.91 C 321.91 280.01 322.04 287.71 326.45 290.47 C 334.08 295.60 344.19 296.37 350.88 303.05 C 356.21 308.41 356.49 316.82 354.51 323.69 C 351.79 330.99 344.52 335.94 336.98 337.12 C 335.24 337.60 333.20 337.59 331.75 338.77 C 331.15 342.82 331.13 346.93 330.64 351.00 C 327.93 351.74 325.08 352.18 322.31 351.52 C 321.17 351.32 320.29 350.19 320.47 349.03 C 320.59 345.35 321.32 341.73 321.66 338.08 C 317.41 336.89 312.78 336.40 309.09 333.80 C 306.54 332.09 307.27 328.60 307.15 325.98 C 306.97 324.09 307.87 322.47 308.94 321.01 C 314.01 323.60 319.23 326.45 325.09 326.52 C 330.01 326.75 336.09 326.79 339.25 322.29 C 342.06 318.50 340.19 312.96 336.22 310.82 C 329.11 306.70 320.41 305.45 314.12 299.89 C 307.05 293.46 306.62 281.55 312.05 273.98 C 315.94 268.64 322.63 266.69 328.84 265.62 C 329.67 261.63 329.34 257.45 330.48 253.53 Z" />
<path fill="#3a7500" d=" M 230.98 263.89 C 238.11 261.77 245.83 263.46 252.37 266.64 C 264.69 273.60 272.19 287.20 273.82 301.01 C 276.22 320.50 267.98 342.55 249.83 351.83 C 247.71 345.80 246.26 339.58 244.78 333.37 C 250.03 334.83 254.75 331.75 258.68 328.63 C 260.39 324.91 257.09 321.66 256.27 318.20 C 256.58 314.76 259.04 311.74 258.65 308.20 C 257.91 301.55 258.14 294.38 254.38 288.54 C 252.43 285.66 250.82 281.66 246.96 281.05 C 242.31 280.01 237.38 277.71 232.65 279.66 C 228.26 281.11 224.44 283.95 221.70 287.66 C 219.68 290.42 216.78 293.00 216.55 296.62 C 216.25 300.06 216.05 303.52 215.93 306.98 C 215.70 313.22 218.21 319.23 221.50 324.42 C 223.67 327.96 227.59 329.70 230.59 332.39 C 229.77 339.23 227.04 345.69 225.59 352.42 C 218.16 350.11 212.41 344.11 208.17 337.79 C 195.69 318.12 198.16 290.23 214.32 273.37 C 219.21 269.21 224.62 265.34 230.98 263.89 Z" />
<path fill="#214200" d=" M 145.11 277.92 C 148.36 277.52 152.91 276.04 155.24 279.00 C 155.23 282.72 154.51 286.41 154.51 290.14 C 158.28 291.24 162.34 292.03 165.55 294.42 C 167.24 298.00 166.69 302.23 165.68 305.94 C 158.32 303.04 150.18 299.09 142.22 302.33 C 137.03 304.13 136.83 311.92 141.14 314.80 C 148.83 320.30 159.39 320.86 166.11 327.91 C 170.72 332.64 171.22 339.79 170.07 345.96 C 168.45 353.31 162.20 359.06 155.03 360.95 C 152.20 361.67 149.35 362.30 146.53 363.08 C 146.41 367.27 145.99 371.44 145.55 375.61 C 142.33 376.50 138.65 377.10 135.61 375.31 C 135.12 371.11 136.27 366.94 136.53 362.76 C 131.88 361.20 126.36 360.90 122.76 357.23 C 121.71 353.90 121.88 350.10 122.68 346.72 C 124.24 345.47 126.05 346.78 127.58 347.40 C 133.48 350.47 140.35 352.26 147.00 350.99 C 150.13 350.40 153.45 348.88 154.77 345.78 C 156.61 342.17 154.84 337.54 151.43 335.57 C 143.64 330.88 133.56 329.86 127.34 322.71 C 122.80 317.44 122.67 309.69 124.40 303.29 C 127.07 295.21 135.64 291.22 143.56 290.33 C 144.56 286.26 144.73 282.07 145.11 277.92 Z" />
<path fill="#437e08" d=" M 232.65 279.66 C 237.38 277.71 242.31 280.01 246.96 281.05 C 250.82 281.66 252.43 285.66 254.38 288.54 C 258.14 294.38 257.91 301.55 258.65 308.20 C 259.04 311.74 256.58 314.76 256.27 318.20 C 257.09 321.66 260.39 324.91 258.68 328.63 C 254.75 331.75 250.03 334.83 244.78 333.37 C 246.26 339.58 247.71 345.80 249.83 351.83 C 245.65 353.15 241.43 354.58 237.04 354.96 C 233.08 355.00 229.33 353.53 225.59 352.42 C 227.04 345.69 229.77 339.23 230.59 332.39 C 227.59 329.70 223.67 327.96 221.50 324.42 C 218.21 319.23 215.70 313.22 215.93 306.98 C 216.05 303.52 216.25 300.06 216.55 296.62 C 216.78 293.00 219.68 290.42 221.70 287.66 C 224.44 283.95 228.26 281.11 232.65 279.66 Z" />
<path fill="#050302" d=" M 684.60 283.93 C 694.83 281.95 707.04 284.91 713.06 294.02 C 720.78 305.48 725.37 320.13 721.70 333.84 C 719.76 343.83 716.06 353.64 709.65 361.65 C 700.34 373.40 687.77 383.18 673.04 386.88 C 661.34 389.77 649.02 390.78 637.13 388.45 C 625.48 386.38 615.19 377.37 612.19 365.83 C 609.94 359.47 609.72 352.36 612.02 345.98 C 613.91 340.93 618.43 337.52 622.92 334.85 C 629.95 330.58 637.95 328.41 645.57 325.45 C 649.98 324.21 654.48 321.93 656.58 317.62 C 660.51 309.44 660.37 299.51 666.13 292.17 C 670.65 286.69 677.99 285.26 684.60 283.93 Z" />
<path fill="#f5e7c2" d=" M 687.06 286.03 C 696.05 284.81 706.34 287.86 711.44 295.85 C 717.18 304.73 721.11 315.30 720.57 326.01 C 718.96 337.55 715.95 349.37 708.78 358.81 C 699.33 371.38 685.98 381.71 670.38 385.04 C 661.42 386.92 652.20 388.08 643.08 386.80 C 630.42 386.58 617.96 378.06 614.64 365.59 C 611.92 358.22 611.70 349.14 616.76 342.72 C 624.95 334.19 636.88 331.45 647.55 327.36 C 651.66 326.05 655.71 323.80 657.99 319.98 C 662.64 312.08 662.17 302.13 667.39 294.50 C 671.93 288.38 680.06 287.21 687.06 286.03 Z" />
<path fill="#0d0a09" d=" M 689.45 288.35 C 689.91 288.35 690.83 288.34 691.29 288.34 C 691.98 296.70 691.44 305.28 688.09 313.07 C 686.22 311.36 687.69 308.93 688.06 306.93 C 689.98 300.92 689.50 294.56 689.45 288.35 Z" />
<path fill="#17120f" d=" M 698.91 295.66 C 699.37 295.56 700.28 295.35 700.73 295.25 C 700.96 299.96 699.80 304.64 697.84 308.90 L 696.37 309.85 C 696.66 305.01 699.10 300.57 698.91 295.66 Z" />
<path fill="#0d0a09" d=" M 707.49 300.98 C 707.91 301.20 708.75 301.64 709.17 301.86 C 709.84 306.14 708.70 310.55 706.85 314.39 C 706.41 314.55 705.51 314.85 705.07 315.00 C 706.36 310.42 707.80 305.81 707.49 300.98 Z" />
<path fill="#050302" d=" M 666.98 311.07 C 670.67 307.57 677.56 308.10 680.30 312.54 C 682.66 317.43 680.35 322.76 680.83 327.89 C 680.64 333.11 678.93 339.19 673.94 341.77 C 671.71 340.22 670.56 337.57 670.79 334.89 C 671.24 330.10 672.61 325.17 675.92 321.54 C 677.07 321.22 678.26 320.91 679.42 320.58 C 678.88 317.59 679.53 313.21 676.18 311.75 C 673.71 310.81 670.60 310.87 668.55 312.70 C 666.36 314.88 664.94 317.70 663.95 320.60 C 663.04 320.39 662.13 320.38 661.23 320.59 C 662.81 317.25 664.21 313.64 666.98 311.07 Z" />
<path fill="#030302" d=" M 691.75 321.76 C 694.40 319.23 699.01 316.95 702.23 319.80 C 706.10 323.71 705.84 329.78 705.75 334.89 C 705.96 339.93 705.06 345.74 700.96 349.14 C 699.21 350.45 697.24 348.89 696.75 347.14 C 695.61 341.65 697.33 335.83 700.80 331.50 C 701.53 331.39 702.98 331.17 703.71 331.07 C 703.39 327.85 702.73 324.66 701.27 321.76 C 700.71 321.48 699.58 320.91 699.02 320.62 C 693.64 320.98 691.83 326.92 687.34 328.73 C 687.53 325.81 689.87 323.75 691.75 321.76 Z" />
<path fill="#626262" d=" M 65.06 320.91 C 66.34 322.79 67.73 324.60 69.02 326.48 C 69.08 328.51 69.13 330.54 69.13 332.58 C 67.76 331.32 65.94 330.37 65.11 328.65 C 64.79 326.08 65.10 323.49 65.06 320.91 Z" />
<path fill="#f5e7c2" d=" M 673.56 339.06 C 672.85 333.50 673.47 326.69 678.20 322.97 C 679.08 328.42 678.71 335.87 673.56 339.06 Z" />
<path fill="#626262" d=" M 70.06 333.90 C 71.31 336.03 72.72 338.06 73.95 340.20 C 73.98 342.15 73.98 344.10 73.99 346.06 C 72.69 345.22 71.38 344.39 70.06 343.58 C 70.05 340.35 70.14 337.13 70.06 333.90 Z" />
<path fill="#f5e7c2" d=" M 698.91 347.29 C 698.29 342.31 698.96 336.31 703.13 332.97 C 703.93 337.81 703.64 344.53 698.91 347.29 Z" />
<path fill="#0d0a09" d=" M 633.30 344.28 C 638.32 342.28 642.87 339.25 647.90 337.28 C 648.43 337.43 649.50 337.74 650.03 337.89 C 641.51 342.50 632.82 348.15 622.78 348.15 L 621.85 346.64 C 625.64 345.72 629.64 345.73 633.30 344.28 Z" />
<path fill="#020101" d=" M 647.66 349.03 C 646.23 346.86 648.99 347.05 650.04 347.82 C 659.22 352.08 668.37 356.44 677.54 360.74 C 680.50 362.18 683.49 367.42 679.45 369.39 C 673.06 372.41 666.25 375.12 659.09 375.41 C 653.61 375.26 649.66 370.91 647.68 366.17 C 646.51 361.69 645.86 357.10 645.37 352.51 C 645.89 352.44 646.93 352.30 647.45 352.23 C 648.27 356.88 648.73 361.60 650.06 366.15 C 653.62 364.78 656.96 362.37 660.91 362.35 C 667.35 361.95 673.19 365.16 678.82 367.84 C 678.82 366.04 678.78 363.88 676.84 363.04 C 667.23 358.15 657.22 354.01 647.66 349.03 Z" />
<path fill="#626262" d=" M 75.01 348.96 C 76.07 350.95 77.31 352.82 78.50 354.74 C 79.11 356.98 79.33 359.30 79.55 361.61 C 77.68 360.41 76.00 358.97 74.39 357.45 C 74.80 354.64 75.12 351.80 75.01 348.96 Z" />
<path fill="#0d0a09" d=" M 622.73 356.86 C 627.05 355.35 631.53 354.33 635.94 353.08 C 635.84 353.55 635.64 354.48 635.55 354.94 C 631.22 356.64 626.65 357.69 622.12 358.67 C 622.27 358.22 622.57 357.31 622.73 356.86 Z" />
<path fill="#ff5454" d=" M 651.69 368.16 C 655.51 366.28 659.56 363.93 663.99 364.76 C 667.68 365.48 671.47 366.52 674.48 368.90 C 668.82 371.32 662.67 373.68 656.43 372.41 C 654.25 371.81 652.82 369.98 651.69 368.16 Z" />
<path fill="#c1b89b" d=" M 702.00 454.30 C 734.68 450.07 767.30 445.33 799.73 439.52 C 799.91 440.17 800.26 441.48 800.44 442.14 C 794.53 443.22 788.60 444.06 782.69 445.04 C 783.76 450.66 785.76 456.07 786.64 461.74 C 786.08 461.84 784.95 462.03 784.39 462.13 C 783.03 456.61 781.47 451.15 779.93 445.68 C 771.60 446.49 763.40 448.16 755.12 449.30 C 756.15 455.09 757.57 460.80 758.88 466.53 C 757.42 466.75 755.98 466.98 754.54 467.22 C 753.51 461.48 752.23 455.79 750.78 450.14 C 742.50 451.23 734.18 452.15 725.99 453.82 C 726.83 459.22 727.45 464.67 728.90 469.96 C 729.49 470.14 730.65 470.51 731.24 470.69 C 727.38 471.23 723.53 471.75 719.66 472.18 C 721.25 471.77 722.81 471.29 724.39 470.84 C 723.66 465.25 722.61 459.72 721.65 454.17 C 711.28 455.54 700.90 456.86 690.50 458.00 C 691.69 463.65 693.41 469.16 694.82 474.76 C 686.89 475.93 678.83 475.94 670.91 477.10 C 669.38 477.68 672.06 478.34 672.57 478.56 L 672.82 478.67 C 667.38 479.86 661.74 479.52 656.24 480.38 C 655.93 480.24 655.30 479.94 654.99 479.79 C 654.75 479.41 654.27 478.66 654.03 478.28 C 643.26 478.65 632.54 479.70 621.77 479.97 C 624.47 479.61 627.17 479.22 629.89 478.87 C 628.64 473.79 627.36 468.71 626.05 463.65 C 616.44 464.12 606.84 464.52 597.22 464.56 C 598.04 470.19 599.48 475.71 600.37 481.33 C 598.99 481.41 597.63 481.50 596.27 481.60 C 595.22 476.02 593.94 470.49 592.80 464.93 C 583.87 464.66 574.94 465.48 566.00 465.32 C 567.37 471.33 568.96 477.28 570.80 483.16 C 569.25 483.26 567.71 483.34 566.18 483.42 C 564.77 477.37 563.13 471.38 561.56 465.37 C 556.30 465.24 551.03 465.20 545.78 465.63 C 545.74 464.95 545.67 463.57 545.63 462.88 C 571.43 462.81 597.24 462.62 623.00 461.34 C 630.64 460.23 638.38 460.84 646.05 459.96 C 658.67 458.53 671.41 458.18 683.98 456.24 C 689.94 455.13 696.03 455.29 702.00 454.30 Z" />
<path fill="#f5e8c6" d=" M 782.69 445.04 C 788.60 444.06 794.53 443.22 800.44 442.14 C 801.91 447.54 803.65 452.87 804.98 458.32 C 798.86 459.44 792.74 460.51 786.64 461.74 C 785.76 456.07 783.76 450.66 782.69 445.04 Z" />
<path fill="#f5e8c6" d=" M 755.12 449.30 C 763.40 448.16 771.60 446.49 779.93 445.68 C 781.47 451.15 783.03 456.61 784.39 462.13 C 775.88 463.59 767.39 465.14 758.88 466.53 C 757.57 460.80 756.15 455.09 755.12 449.30 Z" />
<path fill="#f5e8c6" d=" M 725.99 453.82 C 734.18 452.15 742.50 451.23 750.78 450.14 C 752.23 455.79 753.51 461.48 754.54 467.22 C 746.78 468.46 739.03 469.69 731.24 470.69 C 730.65 470.51 729.49 470.14 728.90 469.96 C 727.45 464.67 726.83 459.22 725.99 453.82 Z" />
<path fill="#f5e8c6" d=" M 690.50 458.00 C 700.90 456.86 711.28 455.54 721.65 454.17 C 722.61 459.72 723.66 465.25 724.39 470.84 C 722.81 471.29 721.25 471.77 719.66 472.18 C 711.39 473.14 703.12 474.09 694.82 474.76 C 693.41 469.16 691.69 463.65 690.50 458.00 Z" />
<path fill="#f5e8c6" d=" M 660.19 461.40 C 668.75 460.01 677.43 459.63 686.05 458.70 C 687.56 463.96 689.00 469.23 690.51 474.50 C 681.57 476.06 672.42 475.72 663.42 476.71 C 662.16 471.64 661.26 466.50 660.19 461.40 Z" />
<path fill="#f5e8c6" d=" M 630.36 463.59 C 636.86 462.58 643.47 462.77 650.00 461.93 C 651.95 461.87 654.05 461.28 655.92 462.08 C 657.33 466.98 657.92 472.08 659.01 477.06 C 650.82 478.62 642.44 477.95 634.18 478.85 C 632.99 473.74 631.60 468.68 630.36 463.59 Z" />
<path fill="#f5e8c6" d=" M 597.22 464.56 C 606.84 464.52 616.44 464.12 626.05 463.65 C 627.36 468.71 628.64 473.79 629.89 478.87 C 627.17 479.22 624.47 479.61 621.77 479.97 C 614.66 480.84 607.50 480.80 600.37 481.33 C 599.48 475.71 598.04 470.19 597.22 464.56 Z" />
<path fill="#f5e8c6" d=" M 545.78 465.63 C 551.03 465.20 556.30 465.24 561.56 465.37 C 563.13 471.38 564.77 477.37 566.18 483.42 C 558.42 483.54 550.71 484.37 542.96 484.63 C 544.69 478.44 546.18 472.11 545.78 465.63 Z" />
<path fill="#f5e8c6" d=" M 566.00 465.32 C 574.94 465.48 583.87 464.66 592.80 464.93 C 593.94 470.49 595.22 476.02 596.27 481.60 C 587.79 482.41 579.27 482.32 570.80 483.16 C 568.96 477.28 567.37 471.33 566.00 465.32 Z" />
<path fill="#0c0b0a" d=" M 657.31 479.70 C 656.61 479.11 655.92 478.53 655.24 477.95 C 659.04 477.70 662.85 477.45 666.67 477.28 C 667.37 477.88 668.07 478.49 668.78 479.11 C 664.95 479.27 661.12 479.35 657.31 479.70 Z" />
<path fill="#000000" d=" M 395.07 608.22 C 403.98 596.70 418.48 590.16 432.97 590.38 C 447.36 589.78 462.13 595.27 471.75 606.16 C 482.49 617.93 486.26 634.42 485.85 649.99 C 486.12 664.70 482.37 680.26 472.12 691.27 C 462.64 701.96 448.06 706.99 433.99 706.82 C 422.52 707.14 410.59 704.64 401.24 697.69 C 392.58 691.17 386.17 681.44 384.05 670.79 C 390.47 670.20 396.83 669.17 403.24 668.47 C 405.70 674.87 409.03 681.19 414.51 685.52 C 421.91 691.39 432.20 692.57 441.18 690.34 C 450.84 688.03 458.87 680.58 462.61 671.47 C 465.12 665.79 465.89 659.56 466.58 653.44 C 438.83 653.39 411.08 653.41 383.34 653.44 C 382.60 637.73 384.95 620.84 395.07 608.22 Z" />
<path fill="#000000" d=" M 121.41 594.62 C 130.38 591.50 140.05 594.77 147.94 599.28 C 146.21 605.26 143.66 610.95 141.67 616.85 C 136.49 614.40 130.78 612.07 124.94 613.14 C 117.93 614.00 112.06 619.48 109.87 626.08 C 107.33 633.74 106.29 641.88 106.35 649.94 C 106.35 669.11 106.35 688.27 106.35 707.44 C 100.05 707.44 93.74 707.44 87.44 707.44 C 87.49 670.22 87.32 633.00 87.53 595.78 C 93.18 595.92 98.86 595.56 104.51 596.04 C 104.51 601.60 104.45 607.17 104.56 612.74 C 108.63 605.58 113.19 597.55 121.41 594.62 Z" />
<path fill="#000000" d=" M 166.92 609.68 C 176.48 598.51 191.44 592.87 205.98 593.43 C 220.67 593.21 235.39 599.92 244.29 611.71 C 254.15 624.30 256.39 640.96 255.76 656.49 C 228.02 656.48 200.28 656.47 172.54 656.49 C 173.20 666.19 175.54 676.33 182.16 683.79 C 192.32 695.74 212.12 698.23 224.58 688.52 C 230.02 684.21 233.40 677.93 235.76 671.53 C 242.19 672.27 248.60 673.27 255.05 673.86 C 252.00 688.13 241.70 700.88 228.00 706.18 C 218.48 710.05 207.97 710.32 197.86 709.49 C 184.17 708.18 170.98 701.09 163.13 689.68 C 155.43 678.77 152.90 665.08 153.16 651.95 C 152.98 636.94 156.65 621.09 166.92 609.68 Z" />
<path fill="#000000" d=" M 541.20 594.24 C 549.90 591.96 559.33 594.69 566.62 599.61 C 564.60 605.40 562.33 611.11 560.26 616.88 C 554.09 613.69 546.69 611.39 539.92 614.05 C 533.68 616.33 529.26 622.14 527.74 628.49 C 523.96 640.33 525.67 652.86 524.89 665.04 C 524.62 672.03 525.22 679.00 525.16 685.99 C 525.04 693.13 524.51 700.27 525.22 707.39 C 518.86 707.49 512.51 707.42 506.16 707.44 C 506.21 670.23 506.09 633.02 506.22 595.81 C 511.70 595.77 517.18 595.89 522.66 595.72 C 523.77 601.27 522.86 606.97 523.29 612.59 C 527.44 605.11 532.42 596.74 541.20 594.24 Z" />
<path fill="#000000" d=" M 592.06 597.90 C 603.61 592.86 616.69 592.46 628.95 594.67 C 637.08 596.44 645.44 599.52 651.09 605.92 C 655.64 611.09 657.65 617.92 658.85 624.57 C 652.77 625.64 646.64 626.40 640.50 626.97 C 639.26 620.60 635.68 614.39 629.59 611.61 C 621.36 607.94 611.86 608.43 603.26 610.43 C 596.88 612.04 590.67 618.13 591.99 625.14 C 592.80 630.26 597.35 633.45 601.84 635.24 C 614.52 639.03 627.43 642.05 639.98 646.29 C 646.40 648.32 652.81 651.38 657.12 656.74 C 662.99 663.56 664.11 673.35 662.24 681.90 C 659.87 691.55 653.02 699.89 644.09 704.22 C 632.71 710.19 619.44 710.59 606.92 709.29 C 597.80 708.11 588.48 704.93 581.95 698.19 C 575.43 691.86 572.07 683.05 570.36 674.29 C 576.59 673.14 582.86 672.13 589.14 671.28 C 590.05 679.06 594.03 686.91 601.15 690.69 C 609.34 695.02 619.18 695.28 628.09 693.39 C 633.72 692.28 639.04 688.87 641.81 683.77 C 644.14 679.64 644.40 674.14 641.70 670.12 C 639.76 667.03 636.26 665.47 632.96 664.31 C 623.15 660.91 612.91 659.03 603.03 655.89 C 595.22 653.46 586.92 650.94 581.06 644.90 C 573.30 636.81 571.42 624.01 575.97 613.85 C 579.05 606.74 584.96 600.96 592.06 597.90 Z" />
<path fill="#000000" d=" M 698.57 604.42 C 711.09 593.87 728.81 591.35 744.45 594.85 C 758.08 597.97 769.81 607.74 775.80 620.31 C 781.35 631.46 782.23 644.18 782.16 656.44 C 754.32 656.57 726.48 656.39 698.64 656.53 C 699.59 666.57 701.90 677.23 709.24 684.66 C 719.67 696.11 739.20 697.95 751.30 688.15 C 756.44 683.87 759.68 677.75 761.92 671.54 C 768.45 672.24 774.94 673.28 781.48 673.87 C 778.35 686.34 770.42 697.82 758.97 703.97 C 748.08 709.95 735.19 710.59 723.07 709.37 C 709.26 707.82 696.13 700.26 688.56 688.51 C 679.46 674.58 678.18 657.08 679.96 640.96 C 681.54 627.09 687.54 613.33 698.57 604.42 Z" />
<path fill="#000000" d=" M 267.91 595.82 C 274.40 595.78 280.88 595.83 287.37 595.78 C 295.60 618.17 303.53 640.67 311.59 663.11 C 314.27 670.33 316.21 677.79 318.82 685.03 C 321.43 675.10 325.14 665.51 328.61 655.86 C 335.98 635.84 343.10 615.73 350.62 595.78 C 357.02 595.83 363.41 595.78 369.81 595.81 C 356.08 633.09 341.53 670.08 327.83 707.37 C 321.87 707.51 315.90 707.44 309.95 707.42 C 297.50 674.40 284.86 641.46 272.33 608.48 C 270.83 604.27 268.87 600.20 267.91 595.82 Z" />
<path fill="#ffffff" d=" M 412.45 614.44 C 423.64 602.77 444.27 603.16 455.53 614.53 C 461.83 620.55 464.81 629.21 465.48 637.75 C 444.68 637.76 423.87 637.88 403.07 637.69 C 403.98 629.34 406.03 620.37 412.45 614.44 Z" />
<path fill="#ffffff" d=" M 183.05 618.05 C 191.32 609.32 204.78 606.90 215.97 610.68 C 221.76 612.75 226.73 616.80 230.23 621.82 C 233.87 627.44 235.32 634.17 235.85 640.77 C 235.14 640.79 233.72 640.84 233.01 640.86 C 213.17 640.76 193.32 640.93 173.47 640.77 C 174.35 632.48 176.99 624.05 183.05 618.05 Z" />
<path fill="#ffffff" d=" M 710.17 617.18 C 721.58 606.15 742.22 606.07 753.13 617.87 C 759.23 623.80 761.53 632.56 761.96 640.82 C 752.30 640.86 742.65 640.82 733.00 640.84 C 722.01 640.82 711.03 640.85 700.04 640.82 C 700.17 632.04 703.72 623.23 710.17 617.18 Z" />
<path fill="#000000" d=" M 487.62 751.72 C 493.90 751.71 500.19 751.71 506.49 751.72 C 506.49 803.01 506.48 854.30 506.49 905.60 C 500.59 905.60 494.69 905.65 488.79 905.56 C 488.82 900.98 488.80 896.40 488.77 891.83 C 484.10 899.22 476.70 904.97 468.12 906.97 C 455.39 910.22 441.37 907.16 430.91 899.28 C 419.77 891.06 413.22 877.86 410.88 864.43 C 408.16 848.37 409.74 831.30 416.70 816.47 C 422.47 804.09 434.39 794.88 447.84 792.45 C 457.64 790.61 468.36 791.60 476.88 797.11 C 481.04 799.47 484.24 803.08 487.53 806.48 C 487.72 788.23 487.56 769.97 487.62 751.72 Z" />
<path fill="#000000" d=" M 536.30 773.42 C 536.31 766.17 536.26 758.93 536.33 751.70 C 542.62 751.73 548.91 751.70 555.21 751.72 C 555.21 758.94 555.20 766.17 555.21 773.39 C 548.91 773.43 542.61 773.40 536.30 773.42 Z" />
<path fill="#000000" d=" M 183.98 808.75 C 193.36 797.31 208.29 791.23 222.95 791.65 C 237.66 791.22 252.61 797.67 261.65 809.42 C 271.82 822.02 274.24 838.94 273.62 854.67 C 245.89 854.67 218.16 854.67 190.43 854.67 C 190.86 865.52 194.13 877.05 202.47 884.52 C 214.19 895.53 235.50 895.80 246.13 883.12 C 249.44 879.34 251.64 874.75 253.40 870.08 C 259.94 870.19 266.37 871.58 272.89 872.11 C 269.75 886.31 259.58 899.00 245.94 904.35 C 233.56 909.09 219.66 909.36 206.90 906.05 C 194.16 902.65 183.06 893.68 177.29 881.80 C 172.56 872.60 171.17 862.16 170.79 851.94 C 170.79 836.75 173.73 820.56 183.98 808.75 Z" />
<path fill="#000000" d=" M 729.85 793.79 C 741.74 790.17 755.45 790.70 766.14 797.51 C 770.45 799.99 773.76 803.74 777.28 807.18 C 777.38 802.86 777.35 798.55 777.30 794.25 C 783.09 794.12 788.88 794.20 794.68 794.19 C 794.68 825.14 794.68 856.09 794.68 887.05 C 794.67 898.77 794.70 910.72 791.49 922.10 C 788.64 932.07 781.17 940.33 771.99 944.98 C 760.67 950.99 747.40 951.53 734.90 950.40 C 724.74 949.13 714.30 945.42 707.36 937.58 C 701.94 931.48 699.97 923.06 700.23 915.07 C 706.34 915.73 712.42 916.72 718.49 917.70 C 719.29 923.04 721.78 928.44 726.65 931.20 C 735.76 936.33 746.99 936.24 756.89 933.72 C 766.01 931.29 772.83 923.11 774.45 913.94 C 775.68 906.41 775.46 898.76 775.44 891.17 C 768.25 899.82 757.38 905.59 746.02 905.57 C 734.09 906.19 721.66 902.40 713.14 893.80 C 704.57 884.94 699.14 873.20 697.31 861.05 C 695.10 845.64 697.00 829.37 704.28 815.48 C 709.59 805.33 718.79 797.09 729.85 793.79 Z" />
<path fill="#000000" d=" M 324.67 798.74 C 334.54 791.82 347.36 790.37 359.00 792.54 C 366.86 794.19 374.83 797.56 379.96 804.00 C 385.36 811.11 387.45 820.23 387.35 829.05 C 387.54 854.57 387.38 880.09 387.44 905.61 C 381.13 905.61 374.82 905.62 368.52 905.60 C 368.48 881.44 368.61 857.28 368.45 833.13 C 368.33 825.27 366.49 816.20 359.19 811.85 C 345.70 803.60 324.36 809.06 318.70 824.52 C 316.56 830.10 316.11 836.13 315.69 842.04 C 315.58 863.23 315.67 884.42 315.64 905.61 C 309.33 905.58 303.02 905.66 296.72 905.56 C 296.73 868.46 296.76 831.37 296.70 794.28 C 302.39 794.09 308.08 794.21 313.77 794.18 C 313.80 799.22 313.67 804.27 313.87 809.31 C 317.31 805.64 320.44 801.57 324.67 798.74 Z" />
<path fill="#000000" d=" M 611.76 798.79 C 622.73 791.14 637.24 789.99 649.90 793.46 C 658.51 795.75 666.77 801.07 670.46 809.45 C 675.02 818.25 674.57 828.39 674.59 838.01 C 674.59 860.54 674.59 883.08 674.59 905.61 C 668.27 905.59 661.95 905.65 655.64 905.57 C 655.63 881.71 655.70 857.85 655.60 834.00 C 655.47 826.94 654.62 818.95 649.04 813.96 C 642.90 808.05 633.75 807.33 625.74 808.65 C 617.39 810.43 609.14 815.65 606.09 823.95 C 602.31 833.81 602.86 844.60 602.80 854.99 C 602.79 871.86 602.80 888.74 602.79 905.61 C 596.57 905.61 590.35 905.59 584.14 905.63 C 583.88 887.45 583.69 869.21 584.10 851.01 C 583.31 833.67 584.59 816.32 583.88 798.99 C 583.84 797.37 584.00 795.77 584.16 794.18 C 589.70 794.18 595.25 794.19 600.80 794.17 C 601.00 799.22 601.32 804.28 600.87 809.33 C 604.46 805.77 607.51 801.62 611.76 798.79 Z" />
<path fill="#000000" d=" M 58.08 794.25 C 64.76 794.12 71.44 794.19 78.12 794.21 C 86.07 816.75 94.26 839.20 102.26 861.72 C 104.77 868.81 106.96 875.99 109.10 883.19 C 118.84 853.23 130.46 823.92 140.93 794.21 C 147.42 794.17 153.92 794.16 160.41 794.22 C 146.33 831.32 132.23 868.43 118.27 905.58 C 112.37 905.64 106.46 905.58 100.56 905.63 C 86.31 868.54 72.33 831.34 58.08 794.25 Z" />
<path fill="#000000" d=" M 536.30 794.19 C 542.60 794.19 548.91 794.17 555.21 794.20 C 555.20 831.33 555.21 868.47 555.21 905.60 C 548.92 905.63 542.62 905.58 536.33 905.64 C 536.26 868.49 536.32 831.34 536.30 794.19 Z" />
<path fill="#ffffff" d=" M 202.03 815.11 C 213.40 804.49 233.23 804.41 244.28 815.55 C 250.70 821.65 253.09 830.70 253.65 839.27 C 232.90 839.27 212.16 839.28 191.41 839.27 C 191.90 830.30 195.28 821.23 202.03 815.11 Z" />
<path fill="#ffffff" d=" M 455.35 807.49 C 462.64 806.63 470.25 808.61 475.85 813.44 C 484.71 820.50 488.08 832.19 488.77 843.08 C 488.95 853.11 489.66 863.52 485.92 873.05 C 482.14 883.82 471.80 892.73 460.04 892.58 C 452.45 892.96 445.07 889.44 439.92 883.98 C 432.70 876.78 429.98 866.34 429.36 856.44 C 428.89 845.72 429.11 834.57 433.38 824.55 C 437.17 815.68 445.54 808.40 455.35 807.49 Z" />
<path fill="#ffffff" d=" M 740.53 807.80 C 749.02 806.19 758.22 808.37 764.61 814.31 C 772.12 820.64 775.76 830.41 776.62 839.99 C 777.71 849.63 777.13 859.55 774.35 868.88 C 771.21 879.21 762.29 888.05 751.39 889.58 C 745.74 890.24 739.78 890.01 734.55 887.57 C 727.26 884.18 721.56 877.66 719.04 870.05 C 715.55 860.43 715.93 850.05 716.28 839.99 C 716.98 832.51 719.05 824.90 723.62 818.82 C 727.75 813.35 733.75 809.14 740.53 807.80 Z" />
<path fill="#000000" d=" M 446.27 1094.69 C 446.30 1043.32 446.19 991.95 446.32 940.58 C 452.62 940.63 458.93 940.57 465.23 940.63 C 465.27 959.02 465.19 977.41 465.27 995.80 C 472.07 987.93 481.57 982.29 491.99 981.07 C 503.84 979.47 516.93 981.76 526.23 989.71 C 531.41 994.09 534.50 1000.51 535.70 1007.12 C 537.73 1017.61 537.14 1028.34 537.22 1038.97 C 537.24 1057.51 537.19 1076.06 537.24 1094.60 C 530.91 1094.78 524.58 1094.65 518.25 1094.69 C 518.25 1071.47 518.23 1048.25 518.26 1025.02 C 518.25 1018.70 517.63 1012.07 514.41 1006.48 C 511.63 1001.61 506.41 998.45 500.96 997.54 C 490.14 995.26 477.89 999.19 471.13 1008.11 C 466.39 1014.69 465.36 1023.12 465.27 1031.03 C 465.22 1052.22 465.23 1073.41 465.26 1094.61 C 458.93 1094.77 452.60 1094.65 446.27 1094.69 Z" />
<path fill="#000000" d=" M 566.20 940.59 C 572.38 940.60 578.56 940.63 584.74 940.57 C 584.91 947.86 584.80 955.16 584.81 962.46 C 578.62 962.47 572.43 962.41 566.25 962.49 C 566.09 955.19 566.17 947.89 566.20 940.59 Z" />
<path fill="#000000" d=" M 84.69 980.95 C 94.73 979.74 105.87 981.29 113.81 988.01 C 117.62 991.12 120.10 995.48 122.01 999.95 C 126.78 993.47 132.55 987.41 140.00 984.07 C 150.20 979.47 162.23 979.50 172.61 983.50 C 180.58 986.69 186.60 993.83 188.82 1002.07 C 191.31 1009.78 190.75 1017.94 190.81 1025.92 C 190.81 1048.84 190.81 1071.77 190.81 1094.69 C 184.60 1094.68 178.39 1094.69 172.18 1094.69 C 172.17 1075.46 172.18 1056.22 172.18 1036.99 C 172.11 1028.34 172.56 1019.61 171.10 1011.05 C 170.00 1004.57 164.68 999.38 158.40 997.80 C 149.59 995.92 139.62 997.80 133.18 1004.42 C 126.31 1010.97 125.08 1020.99 124.83 1029.99 C 124.80 1051.56 124.84 1073.13 124.82 1094.69 C 118.60 1094.68 112.38 1094.68 106.16 1094.69 C 106.32 1085.78 105.53 1076.90 106.21 1068.00 C 105.98 1061.34 105.57 1054.66 106.03 1048.01 C 106.06 1046.32 106.11 1044.65 106.19 1042.99 C 106.26 1035.97 105.86 1028.96 105.99 1021.96 C 105.83 1014.97 105.16 1007.19 100.10 1001.87 C 96.05 997.46 89.62 996.86 83.99 997.22 C 74.02 997.57 64.55 1004.40 61.51 1013.98 C 58.22 1023.97 58.54 1034.65 58.54 1045.04 C 58.55 1061.59 58.54 1078.14 58.55 1094.69 C 52.24 1094.67 45.93 1094.73 39.61 1094.64 C 39.64 1057.51 39.62 1020.37 39.63 983.24 C 45.28 983.18 50.93 983.21 56.59 983.21 C 56.59 988.37 56.55 993.53 56.63 998.70 C 62.96 989.21 73.27 982.30 84.69 980.95 Z" />
<path fill="#000000" d=" M 371.94 981.86 C 384.79 979.21 399.00 980.50 410.27 987.57 C 419.65 993.39 425.74 1003.55 427.84 1014.26 C 428.05 1014.56 428.46 1015.17 428.66 1015.48 C 423.00 1017.22 417.00 1017.28 411.26 1018.70 C 411.01 1018.93 410.51 1019.39 410.26 1019.62 C 408.33 1012.76 405.68 1005.52 399.73 1001.12 C 392.65 995.56 382.78 995.09 374.44 997.66 C 364.83 1000.56 357.51 1008.96 354.86 1018.52 C 351.70 1029.98 351.61 1042.19 353.55 1053.88 C 354.92 1062.35 358.68 1070.91 365.80 1076.07 C 377.42 1084.84 396.51 1083.47 405.20 1071.21 C 408.81 1066.17 410.48 1060.08 411.49 1054.05 C 417.58 1054.56 423.65 1055.32 429.70 1056.16 C 428.83 1067.40 423.28 1078.33 414.94 1085.91 C 404.78 1095.13 390.37 1098.52 376.95 1096.85 C 365.35 1095.84 354.06 1090.53 346.38 1081.69 C 336.23 1070.46 332.77 1054.71 333.11 1039.92 C 332.70 1026.35 335.26 1012.25 342.70 1000.70 C 349.17 990.57 360.39 984.30 371.94 981.86 Z" />
<path fill="#000000" d=" M 650.23 983.25 C 663.10 978.79 678.02 979.85 689.81 986.82 C 697.29 991.11 701.62 999.29 703.28 1007.52 C 705.01 1017.25 704.32 1027.18 704.47 1037.01 C 704.48 1056.23 704.45 1075.44 704.48 1094.66 C 698.17 1094.71 691.86 1094.69 685.55 1094.67 C 685.57 1077.79 685.55 1060.91 685.56 1044.02 C 685.20 1033.05 686.64 1021.82 683.80 1011.08 C 681.46 1002.54 672.57 997.20 664.02 997.20 C 653.07 996.34 640.75 1001.55 636.23 1012.08 C 631.94 1022.14 632.72 1033.32 632.64 1044.01 C 632.64 1060.90 632.64 1077.79 632.65 1094.69 C 626.32 1094.67 620.00 1094.74 613.68 1094.64 C 613.72 1057.50 613.70 1020.37 613.70 983.23 C 619.38 983.20 625.06 983.17 630.75 983.25 C 630.70 988.46 630.69 993.69 630.76 998.91 C 635.55 991.96 642.20 986.10 650.23 983.25 Z" />
<path fill="#000000" d=" M 228.47 991.40 C 238.63 983.14 252.23 980.96 264.95 980.56 C 276.87 980.57 289.80 981.88 299.49 989.52 C 306.95 995.61 309.25 1005.75 309.26 1014.97 C 309.60 1035.03 308.87 1055.11 309.89 1075.15 C 310.16 1081.97 312.08 1088.58 315.16 1094.65 C 308.63 1094.73 302.10 1094.66 295.56 1094.70 C 293.52 1090.44 292.31 1085.84 291.93 1081.14 C 288.00 1083.75 284.43 1086.88 280.33 1089.24 C 268.01 1096.70 252.84 1098.79 238.79 1096.09 C 231.28 1094.52 223.97 1090.86 219.15 1084.75 C 210.60 1074.27 210.37 1058.06 218.28 1047.16 C 224.21 1038.81 234.07 1034.13 243.92 1032.31 C 259.36 1029.64 275.17 1028.73 290.22 1024.05 C 290.47 1017.45 290.70 1010.13 286.63 1004.53 C 281.18 998.02 272.08 996.32 264.00 996.28 C 256.66 996.26 248.50 996.91 242.64 1001.83 C 238.07 1005.86 235.92 1011.79 234.24 1017.47 C 228.38 1016.77 222.56 1015.72 216.69 1015.18 C 216.47 1014.94 216.02 1014.45 215.80 1014.21 C 218.13 1005.77 221.45 997.06 228.47 991.40 Z" />
<path fill="#000000" d=" M 747.93 990.45 C 763.79 978.55 786.76 977.39 804.13 986.66 C 814.98 992.61 823.02 1003.09 826.61 1014.87 C 829.69 1024.15 829.98 1034.02 829.79 1043.71 C 802.04 1043.74 774.29 1043.69 746.53 1043.74 C 747.42 1053.11 749.40 1062.91 755.65 1070.31 C 765.23 1082.35 784.14 1085.31 797.02 1076.99 C 803.46 1072.77 807.18 1065.69 809.90 1058.71 C 816.37 1059.86 822.99 1060.01 829.43 1061.42 C 826.47 1071.01 821.54 1080.31 813.55 1086.65 C 800.47 1097.39 782.07 1098.98 766.01 1095.74 C 755.21 1093.47 745.15 1087.44 738.49 1078.59 C 731.66 1069.91 728.47 1058.93 727.47 1048.07 C 726.71 1036.09 727.29 1023.75 731.65 1012.44 C 734.85 1003.76 740.60 996.08 747.93 990.45 Z" />
<path fill="#000000" d=" M 566.17 983.21 C 572.38 983.21 578.60 983.20 584.82 983.21 C 584.82 1020.37 584.82 1057.53 584.82 1094.69 C 578.60 1094.68 572.39 1094.68 566.17 1094.69 C 566.16 1057.53 566.17 1020.37 566.17 983.21 Z" />
<path fill="#ffffff" d=" M 756.82 1005.66 C 767.80 993.55 788.94 992.84 800.50 1004.50 C 806.96 1010.56 809.40 1019.66 809.89 1028.24 C 789.13 1028.23 768.38 1028.25 747.62 1028.23 C 748.33 1020.02 750.91 1011.64 756.82 1005.66 Z" />
<path fill="#ffffff" d=" M 253.49 1046.79 C 265.86 1044.83 278.39 1043.15 290.21 1038.82 C 290.22 1047.73 290.74 1057.19 286.72 1065.43 C 281.00 1076.55 268.16 1082.44 256.01 1082.38 C 249.03 1082.64 241.26 1081.04 236.56 1075.46 C 231.36 1069.47 231.42 1059.71 236.87 1053.91 C 241.01 1049.10 247.59 1047.94 253.49 1046.79 Z" />
</svg>
